<svg xmlns="http://www.w3.org/2000/svg" viewBox="0 0 32 32" fill="none">
  <!-- Duolingo Chunky 3D Sticker Base -->
  <rect x="0" y="3" width="32" height="29" rx="10" fill="#46a302" />
  <rect x="0" y="0" width="32" height="28" rx="10" fill="#58cc02" />

  <!-- Umlaut Dots (¨) in Playful Duolingo Gold -->
  <circle cx="11.5" cy="7.5" r="2" fill="#ffd900" stroke="#000437" stroke-width="0.75" />
  <circle cx="20.5" cy="7.5" r="2" fill="#ffd900" stroke="#000437" stroke-width="0.75" />

  <!-- Storybook Open Pages (Chunky & Friendly) -->
  <path d="M6 13C6 11.5 7.5 10.5 9 10.5H14.5C15.3 10.5 16 11.2 16 12V22C16 22 13.5 21 9 21C7.5 21 6 22 6 23V13Z" fill="#ffffff" stroke="#46a302" stroke-width="1.2" />
  <path d="M26 13C26 11.5 24.5 10.5 23 10.5H17.5C16.7 10.5 16 11.2 16 12V22C16 22 18.5 21 23 21C24.5 21 26 22 26 23V13Z" fill="#ffffff" stroke="#46a302" stroke-width="1.2" />

  <!-- Duolingo Spark Blue Bookmark Ribbon -->
  <path d="M14.5 10.5H17.5V17L16 15.5L14.5 17V10.5Z" fill="#1cb0f6" />
</svg>
